USFL
nRows=175
nColumns=2
inDegrees=yes
endheader
time	med_gas_r	
4.3125	 55.160191	
4.375	 59.368903	
4.4375	 59.367559	
4.5	 59.420365	
4.5625	 59.533226	
4.625	 59.460404	
4.6875	 59.723275	
4.75	 60.011786	
4.8125	 59.994955	
4.875	 60.066595	
4.9375	 60.128019	
5	 60.007342	
5.0625	 59.832598	
5.125	 59.811899	
5.1875	 59.663981	
5.25	 59.607827	
5.3125	 59.537429	
5.375	 59.505693	
5.4375	 59.502628	
5.5	 59.586949	
5.5625	 59.515748	
5.625	 59.583161	
5.6875	 59.830345	
5.75	 59.746830	
5.8125	 59.555540	
5.875	 59.494750	
5.9375	 59.345676	
6	 59.378149	
6.0625	 59.389874	
6.125	 59.464723	
6.1875	 59.583551	
6.25	 59.584092	
6.3125	 59.544212	
6.375	 52.144697	
6.4375	 52.074926	
6.5	 52.211114	
6.5625	 52.027471	
6.625	 51.845661	
6.6875	 49.680831	
6.75	 45.883511	
6.8125	 45.828952	
6.875	 45.488527	
6.9375	 41.467111	
7	 41.405913	
7.0625	 40.462620	
7.125	 38.345346	
7.1875	 36.781389	
7.25	 36.480266	
7.3125	 36.593079	
7.375	 36.549879	
7.4375	 36.846659	
7.5	 37.033361	
7.5625	 37.016725	
7.625	 36.787522	
7.6875	 36.798533	
7.75	 36.982114	
7.8125	 36.992793	
7.875	 36.937915	
7.9375	 35.959707	
8	 35.944386	
8.0625	 35.611716	
8.125	 35.633980	
8.1875	 35.654059	
8.25	 35.748002	
8.3125	 35.911494	
8.375	 35.955902	
8.4375	 35.316106	
8.5	 35.390756	
8.5625	 35.533705	
8.625	 35.693949	
8.6875	 35.748773	
8.75	 35.942561	
8.8125	 36.363075	
8.875	 36.379846	
8.9375	 36.309500	
9	 36.367511	
9.0625	 36.545105	
9.125	 36.605141	
9.1875	 36.757866	
9.25	 36.881531	
9.3125	 36.788253	
9.375	 36.847387	
9.4375	 36.948927	
9.5	 37.109105	
9.5625	 36.954223	
9.625	 36.821617	
9.6875	 36.860926	
9.75	 36.819809	
9.8125	 36.892232	
9.875	 36.661761	
9.9375	 36.628834	
10	 36.583848	
10.0625	 36.747763	
10.125	 36.838063	
10.1875	 36.837498	
10.25	 36.943718	
10.3125	 36.896950	
10.375	 36.911016	
10.4375	 36.793322	
10.5	 36.797763	
10.5625	 36.744111	
10.625	 36.717302	
10.6875	 36.744894	
10.75	 36.749997	
10.8125	 36.743195	
10.875	 36.835933	
10.9375	 36.855423	
11	 36.907922	
11.0625	 36.934371	
11.125	 36.954057	
11.1875	 36.847295	
11.25	 36.855297	
11.3125	 36.848017	
11.375	 36.843230	
11.4375	 36.831977	
11.5	 36.742763	
11.5625	 36.845154	
11.625	 36.899909	
11.6875	 36.916427	
11.75	 36.887145	
11.8125	 36.917841	
11.875	 36.932846	
11.9375	 37.056046	
12	 37.039710	
12.0625	 37.002915	
12.125	 37.280557	
12.1875	 39.267648	
12.25	 42.664806	
12.3125	 45.145964	
12.375	 49.474141	
12.4375	 51.446125	
12.5	 51.308152	
12.5625	 55.091725	
12.625	 56.962307	
12.6875	 58.359993	
12.75	 58.342655	
12.8125	 58.272767	
12.875	 58.390251	
12.9375	 58.432750	
13	 58.527472	
13.0625	 58.675590	
13.125	 58.737442	
13.1875	 58.761885	
13.25	 58.886426	
13.3125	 58.884979	
13.375	 58.868830	
13.4375	 58.874354	
13.5	 58.872273	
13.5625	 58.849713	
13.625	 58.891854	
13.6875	 58.811025	
13.75	 58.893314	
13.8125	 59.015862	
13.875	 59.042759	
13.9375	 58.951819	
14	 59.047396	
14.0625	 59.226997	
14.125	 59.148587	
14.1875	 59.255433	
14.25	 59.153689	
14.3125	 59.056867	
14.375	 59.051018	
14.4375	 59.364239	
14.5	 59.290010	
14.5625	 59.459540	
14.625	 59.396915	
14.6875	 59.319012	
14.75	 59.478889	
14.8125	 59.402303	
14.875	 59.212941	
14.9375	 59.276055	
15	 59.287612	
15.0625	 59.425107	
15.125	 59.688603	
15.1875	 59.936683	
